<?xml version="1.0" encoding="UTF-8"?>
<svg xmlns="http://www.w3.org/2000/svg" width="1010" height="380" viewBox="0 0 1010 380">
<defs>
  <marker id="arrow" markerWidth="10" markerHeight="7" refX="9" refY="3.5" orient="auto">
    <polygon points="0 0, 10 3.5, 0 7" fill="#3a3a3a" />
  </marker>
</defs>
<rect width="100%" height="100%" fill="#fbfbf8" />
<path d="M 720 58.0 C 380.0 58.0, 380.0 58.0, 40 58.0" stroke="#3a3a3a" stroke-width="1" fill="none" marker-end="url(#arrow)" />
<path d="M 720 58.0 C 380.0 58.0, 380.0 124.0, 40 124.0" stroke="#3a3a3a" stroke-width="1" fill="none" marker-end="url(#arrow)" />
<path d="M 970 58.0 C 505.0 58.0, 505.0 322.0, 40 322.0" stroke="#3a3a3a" stroke-width="1" fill="none" marker-end="url(#arrow)" />
<path d="M 970 58.0 C 505.0 58.0, 505.0 124.0, 40 124.0" stroke="#3a3a3a" stroke-width="1" fill="none" marker-end="url(#arrow)" />
<path d="M 720 124.0 C 755.0 124.0, 755.0 190.0, 790 190.0" stroke="#3a3a3a" stroke-width="1" fill="none" marker-end="url(#arrow)" />
<path d="M 970 124.0 C 630.0 124.0, 630.0 124.0, 290 124.0" stroke="#3a3a3a" stroke-width="1" fill="none" marker-end="url(#arrow)" />
<path d="M 970 124.0 C 630.0 124.0, 630.0 190.0, 290 190.0" stroke="#3a3a3a" stroke-width="1" fill="none" marker-end="url(#arrow)" />
<path d="M 220 190.0 C 505.0 190.0, 505.0 190.0, 790 190.0" stroke="#3a3a3a" stroke-width="1" fill="none" marker-end="url(#arrow)" />
<path d="M 220 190.0 C 255.0 190.0, 255.0 190.0, 290 190.0" stroke="#3a3a3a" stroke-width="1" fill="none" marker-end="url(#arrow)" />
<path d="M 470 190.0 C 255.0 190.0, 255.0 124.0, 40 124.0" stroke="#3a3a3a" stroke-width="1" fill="none" marker-end="url(#arrow)" />
<path d="M 720 190.0 C 505.0 190.0, 505.0 58.0, 290 58.0" stroke="#3a3a3a" stroke-width="1" fill="none" marker-end="url(#arrow)" />
<path d="M 720 190.0 C 755.0 190.0, 755.0 190.0, 790 190.0" stroke="#3a3a3a" stroke-width="1" fill="none" marker-end="url(#arrow)" />
<path d="M 220 256.0 C 505.0 256.0, 505.0 190.0, 790 190.0" stroke="#3a3a3a" stroke-width="1" fill="none" marker-end="url(#arrow)" />
<path d="M 220 256.0 C 255.0 256.0, 255.0 256.0, 290 256.0" stroke="#3a3a3a" stroke-width="1" fill="none" marker-end="url(#arrow)" />
<path d="M 470 256.0 C 380.0 256.0, 380.0 190.0, 290 190.0" stroke="#3a3a3a" stroke-width="1" fill="none" marker-end="url(#arrow)" />
<path d="M 720 256.0 C 755.0 256.0, 755.0 190.0, 790 190.0" stroke="#3a3a3a" stroke-width="1" fill="none" marker-end="url(#arrow)" />
<path d="M 720 256.0 C 755.0 256.0, 755.0 256.0, 790 256.0" stroke="#3a3a3a" stroke-width="1" fill="none" marker-end="url(#arrow)" />
<rect x="40" y="40" width="180" height="36" rx="6" ry="6" fill="#ffffff" stroke="#2f2f2f" />
<text x="130.0" y="63.0" text-anchor="middle" font-family="Verdana" font-size="12" fill="#111111">addresses</text>
<rect x="290" y="40" width="180" height="36" rx="6" ry="6" fill="#ffffff" stroke="#2f2f2f" />
<text x="380.0" y="63.0" text-anchor="middle" font-family="Verdana" font-size="12" fill="#111111">categories</text>
<rect x="540" y="40" width="180" height="36" rx="6" ry="6" fill="#ffffff" stroke="#2f2f2f" />
<text x="630.0" y="63.0" text-anchor="middle" font-family="Verdana" font-size="12" fill="#111111">customer_addresses</text>
<rect x="790" y="40" width="180" height="36" rx="6" ry="6" fill="#ffffff" stroke="#2f2f2f" />
<text x="880.0" y="63.0" text-anchor="middle" font-family="Verdana" font-size="12" fill="#111111">customer_tags</text>
<rect x="40" y="106" width="180" height="36" rx="6" ry="6" fill="#ffffff" stroke="#2f2f2f" />
<text x="130.0" y="129.0" text-anchor="middle" font-family="Verdana" font-size="12" fill="#111111">customers</text>
<rect x="290" y="106" width="180" height="36" rx="6" ry="6" fill="#ffffff" stroke="#2f2f2f" />
<text x="380.0" y="129.0" text-anchor="middle" font-family="Verdana" font-size="12" fill="#111111">discounts</text>
<rect x="540" y="106" width="180" height="36" rx="6" ry="6" fill="#ffffff" stroke="#2f2f2f" />
<text x="630.0" y="129.0" text-anchor="middle" font-family="Verdana" font-size="12" fill="#111111">inventory</text>
<rect x="790" y="106" width="180" height="36" rx="6" ry="6" fill="#ffffff" stroke="#2f2f2f" />
<text x="880.0" y="129.0" text-anchor="middle" font-family="Verdana" font-size="12" fill="#111111">order_discounts</text>
<rect x="40" y="172" width="180" height="36" rx="6" ry="6" fill="#ffffff" stroke="#2f2f2f" />
<text x="130.0" y="195.0" text-anchor="middle" font-family="Verdana" font-size="12" fill="#111111">order_items</text>
<rect x="290" y="172" width="180" height="36" rx="6" ry="6" fill="#ffffff" stroke="#2f2f2f" />
<text x="380.0" y="195.0" text-anchor="middle" font-family="Verdana" font-size="12" fill="#111111">orders</text>
<rect x="540" y="172" width="180" height="36" rx="6" ry="6" fill="#ffffff" stroke="#2f2f2f" />
<text x="630.0" y="195.0" text-anchor="middle" font-family="Verdana" font-size="12" fill="#111111">product_categories</text>
<rect x="790" y="172" width="180" height="36" rx="6" ry="6" fill="#ffffff" stroke="#2f2f2f" />
<text x="880.0" y="195.0" text-anchor="middle" font-family="Verdana" font-size="12" fill="#111111">products</text>
<rect x="40" y="238" width="180" height="36" rx="6" ry="6" fill="#ffffff" stroke="#2f2f2f" />
<text x="130.0" y="261.0" text-anchor="middle" font-family="Verdana" font-size="12" fill="#111111">shipment_items</text>
<rect x="290" y="238" width="180" height="36" rx="6" ry="6" fill="#ffffff" stroke="#2f2f2f" />
<text x="380.0" y="261.0" text-anchor="middle" font-family="Verdana" font-size="12" fill="#111111">shipments</text>
<rect x="540" y="238" width="180" height="36" rx="6" ry="6" fill="#ffffff" stroke="#2f2f2f" />
<text x="630.0" y="261.0" text-anchor="middle" font-family="Verdana" font-size="12" fill="#111111">supplier_products</text>
<rect x="790" y="238" width="180" height="36" rx="6" ry="6" fill="#ffffff" stroke="#2f2f2f" />
<text x="880.0" y="261.0" text-anchor="middle" font-family="Verdana" font-size="12" fill="#111111">suppliers</text>
<rect x="40" y="304" width="180" height="36" rx="6" ry="6" fill="#ffffff" stroke="#2f2f2f" />
<text x="130.0" y="327.0" text-anchor="middle" font-family="Verdana" font-size="12" fill="#111111">tags</text>
</svg>